<svg width="199" height="147" viewBox="0 0 199 147" fill="none" xmlns="http://www.w3.org/2000/svg">
<path d="M182.949 45.8516C182.559 44.1538 181.971 42.484 181.171 40.9092C179.593 37.7452 177.136 35.0032 174.241 33.0284C172.799 32.0282 171.248 31.2221 169.654 30.5851C169.256 30.4223 168.855 30.2698 168.451 30.1356C168.247 30.066 168.051 29.9941 167.842 29.9275L167.2 29.7344L166.88 29.639C166.77 29.6057 166.665 29.5757 166.579 29.5549L166.026 29.4132L165.75 29.3423L165.55 29.2925L165.401 29.2591L164.804 29.1267C161.618 28.432 158.298 28.0802 154.947 28.256C151.601 28.4413 148.233 29.1585 145.095 30.4724C141.951 31.7718 139.072 33.6707 136.607 35.9585C136.37 36.1781 136.14 36.4045 135.91 36.6313C135.906 36.583 135.903 36.5344 135.899 36.4856C135.605 33.4215 134.976 30.2596 133.448 27.2536C132.685 25.7614 131.673 24.3212 130.39 23.107C129.116 21.888 127.576 20.9211 125.958 20.2878C124.338 19.649 122.657 19.3222 121.023 19.2118C120.196 19.1557 119.418 19.1489 118.567 19.185L118.031 19.215L117.387 19.2691C116.977 19.3124 116.569 19.3638 116.163 19.4326C114.538 19.7043 112.943 20.1866 111.442 20.8815C109.943 21.5789 108.535 22.4782 107.284 23.5507C104.768 25.6943 102.928 28.4964 101.762 31.4395C100.585 34.3924 100.03 37.4828 99.8552 40.5225C99.6856 43.5686 99.8918 46.5793 100.32 49.5247C101.201 55.4177 102.944 61.0535 105.064 66.4797C105.602 67.834 106.153 69.1822 106.741 70.5114C107.026 71.1777 107.335 71.8448 107.635 72.511L108.545 74.4612C109.725 76.938 110.613 79.4707 111.099 82.0893C111.575 84.6991 111.64 87.3615 111.208 89.9531C110.785 92.5468 109.866 95.0575 108.565 97.3879C107.259 99.7172 105.587 101.869 103.68 103.821C101.77 105.773 99.6366 107.535 97.3705 109.13C92.8288 112.318 87.7857 114.85 82.565 116.923C77.3348 118.99 71.9049 120.593 66.3889 121.813C60.8724 123.033 55.2612 123.862 49.6207 124.283C43.9817 124.698 38.3051 124.713 32.6899 124.158C27.0905 123.589 21.4953 122.49 16.3763 120.273C15.1058 119.715 13.8567 119.081 12.697 118.36C12.413 118.19 12.1126 117.988 11.8146 117.79L10.9649 117.198L10.1238 116.576L9.30503 115.929C7.15318 114.169 5.22951 112.125 3.81005 109.765C2.38333 107.413 1.51317 104.738 1.32807 101.984C1.13345 99.2307 1.58155 96.4318 2.46774 93.7754C3.35193 91.1127 4.64414 88.5785 6.1678 86.1941C7.69671 83.8091 9.45932 81.5707 11.3827 79.472L10.9589 79.0763C8.95937 81.1362 7.10508 83.3539 5.47798 85.7386C3.85564 88.1235 2.45271 90.6825 1.45406 93.4233C0.456655 96.1563 -0.119945 99.0962 0.0210742 102.06C0.14456 105.02 1.01898 107.957 2.4968 110.531C3.96635 113.116 5.97017 115.345 8.19266 117.256L9.03827 117.96L9.90518 118.635C10.2047 118.853 10.482 119.066 10.8001 119.29C11.0939 119.492 11.3825 119.695 11.7081 119.9C12.9625 120.712 14.2587 121.397 15.5943 122.014C18.2634 123.241 21.0542 124.14 23.8776 124.843C26.7042 125.538 29.5709 126.027 32.4494 126.368C38.2092 127.044 44.0132 127.134 49.7852 126.815C55.5582 126.491 61.3067 125.75 66.9798 124.604C72.6523 123.456 78.2513 121.892 83.6939 119.843C89.1275 117.782 94.4239 115.237 99.3047 111.927C101.74 110.27 104.067 108.415 106.191 106.311C108.311 104.208 110.222 101.841 111.756 99.2046C112.518 97.8842 113.183 96.4981 113.727 95.0593C114.27 93.6199 114.68 92.1246 114.959 90.6046C115.233 89.1242 115.361 87.6204 115.363 86.119L123.673 85.3011C126.705 85.0099 129.733 84.6891 132.769 84.3726C135.801 84.041 138.833 83.6704 141.869 83.2665C144.907 82.8671 147.936 82.3635 150.97 81.7983C154.002 81.2168 157.038 80.5628 160.048 79.666C160.786 79.4544 161.594 79.196 162.314 78.9591L162.855 78.7773L163.125 78.6867L163.434 78.5715C163.816 78.4222 164.205 78.2903 164.581 78.125C166.1 77.5002 167.576 76.7585 168.989 75.9038C171.813 74.1965 174.393 72.0397 176.533 69.4917C178.686 66.9568 180.422 64.0542 181.637 60.9258C182.846 57.7976 183.538 54.4288 183.52 50.9954C183.525 49.2775 183.329 47.5497 182.953 45.8468L182.949 45.8516ZM163.534 35.0137L164.051 35.1269L164.18 35.1549C164.188 35.1567 164.187 35.1562 164.19 35.1569L164.258 35.1742L164.534 35.2443L165.087 35.385C165.186 35.4086 165.264 35.4319 165.336 35.4546L165.561 35.523L166.013 35.6577L166.484 35.8183C166.802 35.9219 167.113 36.0396 167.419 36.1648C168.647 36.6584 169.821 37.2461 170.889 37.9681C173.034 39.3962 174.791 41.3081 175.964 43.5773C177.141 45.8413 177.775 48.4259 177.843 51.0795C177.923 53.7336 177.445 56.4446 176.522 59.0089C175.595 61.5739 174.226 64.0034 172.489 66.1462C171.621 67.2177 170.671 68.2256 169.649 69.1609C168.621 70.0894 167.518 70.9389 166.353 71.6994C165.188 72.4599 163.959 73.132 162.684 73.7084C162.368 73.8617 162.039 73.9836 161.717 74.1236L161.496 74.217L161.23 74.3217L160.699 74.5308C159.986 74.8062 159.356 75.0444 158.643 75.2903C155.859 76.2581 152.991 77.1008 150.088 77.8621C148.635 78.2382 147.172 78.5953 145.704 78.9378L141.281 79.9332C138.324 80.5853 135.348 81.185 132.367 81.788C129.389 82.4088 126.4 82.9905 123.417 83.6256C120.724 84.1925 118.032 84.7792 115.353 85.4201C115.32 84.0708 115.192 82.7263 114.968 81.4059C114.452 78.3902 113.458 75.4721 112.215 72.7741L111.339 70.8254C111.062 70.1841 110.779 69.5503 110.511 68.898C109.961 67.6043 109.45 66.2977 108.951 64.9875C106.987 59.7443 105.42 54.3554 104.69 48.9159C104.335 46.2007 104.195 43.4754 104.383 40.8123C104.474 39.4808 104.657 38.1686 104.935 36.8923C105.209 35.6144 105.588 34.3756 106.082 33.2029C107.065 30.8583 108.516 28.7801 110.392 27.2418C112.26 25.6995 114.54 24.7024 116.941 24.3555C117.241 24.31 117.542 24.2787 117.845 24.2519L118.268 24.2233L118.804 24.2028C119.382 24.19 120.036 24.2045 120.634 24.2581C121.85 24.362 123.002 24.6227 124.037 25.0532C126.113 25.9016 127.671 27.5035 128.697 29.637C129.731 31.765 130.232 34.321 130.418 36.9364C130.6 39.5627 130.47 42.2747 130.164 44.9844L129.277 53.2466C129.277 53.2466 138.125 41.8735 145.679 38.2085C156.008 33.1927 163.533 35.0107 163.533 35.0107L163.534 35.0137Z" fill="#EE3E80"/>
<path d="M78.1091 62.4866L78.2416 58.6793C78.2175 56.7947 78.2686 54.9216 78.4244 53.0843C78.5832 51.2473 78.8274 49.4435 79.2417 47.739C79.6535 46.0392 80.2464 44.4418 81.0479 43.1484C81.8549 41.8527 82.8368 40.9377 84.0301 40.4544C85.2231 39.9699 86.7095 39.8709 88.321 40.1607C88.7195 40.2138 89.1288 40.3262 89.5361 40.4159L89.5744 40.4246L89.5875 40.4276L89.7578 40.4815L90.1092 40.5931L90.4606 40.7048C90.5721 40.7419 90.6194 40.7744 90.7026 40.8085C90.8524 40.8751 91.0039 40.938 91.1574 40.9981C91.3207 41.0752 91.4991 41.1789 91.6704 41.2663C92.0248 41.43 92.3462 41.6744 92.6859 41.8815C94.0136 42.7828 95.1911 44.0118 96.1838 45.4106C97.1767 46.8139 97.9787 48.4011 98.5954 50.0818C99.2136 51.7641 99.6451 53.5388 99.9515 55.3531C100.232 57.1741 100.36 59.0337 100.38 60.9083C100.346 61.8463 100.362 62.7876 100.273 63.7289C100.236 64.1994 100.213 64.672 100.164 65.143L100.003 66.5571C99.959 67.0304 99.8878 67.5007 99.8107 67.9709L99.5903 69.3848C99.4014 70.3211 99.2318 71.2644 99.0129 72.1987C98.5751 74.0675 98.0626 75.9266 97.4747 77.7694C97.1804 78.6907 96.8901 79.6155 96.5442 80.5222C96.2151 81.4352 95.8872 82.3502 95.509 83.2467C95.14 84.1467 94.7976 85.0605 94.3916 85.9477C93.9939 86.8382 93.6264 87.7459 93.1906 88.6209C92.7597 89.4983 92.3673 90.3983 91.9214 91.2707L90.5906 93.8986L91.0856 94.2016L92.7565 91.7513C93.3115 90.9319 93.824 90.085 94.3515 89.2449C94.8888 88.4103 95.3602 87.5381 95.8629 86.6811C96.3701 85.8257 96.8325 84.9453 97.2904 84.0613C97.7638 83.1849 98.1881 82.2834 98.6157 81.3811C99.0583 80.4859 99.4485 79.5656 99.8435 78.6454C100.644 76.8093 101.314 74.9137 101.936 72.9965C102.245 72.0369 102.505 71.06 102.784 70.0872L103.139 68.6087C103.261 68.1159 103.377 67.6219 103.466 67.1203L103.75 65.6188C103.835 65.116 103.894 64.6076 103.968 64.1018C104.13 63.0919 104.185 62.0642 104.286 61.0407C104.402 58.9841 104.398 56.9069 104.216 54.8207C104.02 52.7352 103.611 50.6503 102.978 48.6049C102.343 46.5613 101.467 44.556 100.282 42.6839C99.0936 40.82 97.6138 39.0646 95.7472 37.661C95.2658 37.328 94.8049 36.9699 94.2807 36.6872C94.0204 36.5389 93.7769 36.3889 93.5012 36.2452L92.6092 35.8335C92.4662 35.7709 92.2946 35.69 92.1746 35.6455L91.8277 35.5203L91.4808 35.395L91.3075 35.3324L91.2206 35.3011L91.0517 35.2483L91.0004 35.234C90.4544 35.086 89.9176 34.9225 89.345 34.8163C88.2193 34.5767 87.0283 34.4282 85.7829 34.4748C84.5438 34.5123 83.2521 34.7294 82.0143 35.1877C80.7759 35.641 79.6122 36.3364 78.6278 37.1777C77.6429 38.0201 76.8153 38.987 76.1613 40.0002C74.8493 42.0315 74.0593 44.1693 73.499 46.2728C73.3134 46.9852 73.1599 47.6956 73.0204 48.4053C72.9983 48.3768 72.9778 48.3475 72.9557 48.3187C72.2419 47.3628 71.4491 46.4616 70.624 45.5899C68.9564 43.8616 67.0923 42.2927 65.0369 40.9933C62.9744 39.7069 60.7374 38.687 58.4168 37.9848C56.0868 37.2789 53.72 36.8933 51.2989 36.7766L50.3704 36.7485C50.0678 36.743 49.7324 36.7235 49.4765 36.7398L47.8406 36.7934L47.7088 36.7979L47.6512 36.8036L47.5362 36.8156L47.3063 36.8397L46.8464 36.8888L45.9277 36.9884C45.6216 37.0115 45.3158 37.0751 45.0097 37.1402L44.0929 37.331C41.6588 37.8907 39.2645 38.9507 37.2361 40.5198C35.2005 42.0791 33.5679 44.1112 32.4219 46.3159C31.2667 48.5238 30.5759 50.8929 30.2122 53.2593C29.8508 55.6303 29.824 58.0112 30.0461 60.3463C30.2743 62.6809 30.7337 64.9792 31.4338 67.1959C32.1356 69.4116 33.0464 71.5529 34.142 73.5935C35.2255 75.6419 36.5523 77.5568 38.0249 79.3438C38.7447 80.2525 39.5623 81.0786 40.3641 81.9143L41.6395 83.098C41.8451 83.2978 42.0751 83.4874 42.3103 83.6749L43.0074 84.2391L43.7059 84.8003L44.3762 85.2713L45.0463 85.7413L45.3811 85.9762L45.5209 86.0731L45.6096 86.1282L45.7872 86.2382L48.6328 87.9943C49.1002 88.2961 49.5994 88.5535 50.0876 88.8262L51.5579 89.635C52.524 90.1962 53.5512 90.658 54.5594 91.1493C58.6091 93.0822 62.8945 94.5612 67.2466 95.5653C71.6004 96.5795 75.9925 97.174 80.3553 97.6593C84.7214 98.1346 89.0705 98.4917 93.4132 98.9001C95.5819 99.1059 97.7548 99.303 99.9151 99.5319L103.161 99.8672L106.414 100.238C107.498 100.368 108.591 100.463 109.632 100.64L111.213 100.88C111.741 100.959 112.254 101.099 112.775 101.205C114.867 101.62 116.879 102.313 118.847 103.095C120.789 103.942 122.64 104.978 124.356 106.215C126.047 107.483 127.577 108.962 128.901 110.617C131.556 113.929 133.306 117.946 134.235 122.139C134.703 124.238 134.975 126.385 135.084 128.542C135.138 129.621 135.152 130.703 135.114 131.784C135.076 132.862 135.008 133.949 134.858 135.008L135.43 135.105C135.623 134.009 135.728 132.917 135.805 131.818C135.881 130.72 135.905 129.618 135.888 128.516C135.851 126.314 135.649 124.108 135.242 121.931C134.834 119.756 134.221 117.608 133.362 115.55C132.501 113.494 131.392 111.529 130.042 109.736C128.693 107.943 127.111 106.32 125.347 104.918C123.561 103.546 121.622 102.385 119.588 101.427C117.531 100.535 115.418 99.7435 113.239 99.2427C112.695 99.115 112.156 98.9527 111.607 98.8538L109.96 98.554C108.854 98.3342 107.774 98.2102 106.696 98.0474L103.462 97.5667L100.207 97.1337C98.0343 96.839 95.8664 96.578 93.6965 96.3078C89.3613 95.7767 85.0225 95.2764 80.7225 94.7017C76.4261 94.1139 72.1665 93.4236 68.0416 92.351C63.915 91.2873 59.9402 89.7998 56.1594 87.8786C55.2182 87.3896 54.2623 86.9343 53.3543 86.3739L51.9765 85.5693C51.5186 85.2986 51.0527 85.0449 50.6106 84.7424L47.9265 82.9948L47.7587 82.8859L47.6936 82.8438C47.6903 82.8413 47.6868 82.8385 47.6885 82.8398L47.6472 82.8097L47.3171 82.5681L46.6568 82.0843L45.9978 81.6005L45.4345 81.1194L44.8699 80.6411C44.6808 80.4854 44.4924 80.3249 44.3108 80.1396L43.2082 79.0741C42.5184 78.3188 41.8101 77.5803 41.1927 76.7627C39.926 75.1583 38.7856 73.444 37.8676 71.6127C36.9378 69.7897 36.1736 67.8835 35.5967 65.9268C35.0216 63.9693 34.6677 61.9565 34.5129 59.9472C34.3631 57.9383 34.433 55.925 34.7699 53.9878C35.1043 52.0524 35.7245 50.1968 36.637 48.5591C37.5485 46.9209 38.7615 45.5135 40.22 44.4573C41.6766 43.396 43.3768 42.6879 45.1995 42.3175L45.8889 42.1933C46.1178 42.1487 46.3462 42.1039 46.5867 42.0964L47.933 41.9915L49.5699 41.9902C49.8597 41.9819 50.0688 42.0122 50.3113 42.0255L51.0179 42.0723C52.9508 42.2294 54.9121 42.6117 56.7393 43.2348C58.5766 43.8565 61.3819 45.3187 63.0741 46.2553C66.0355 47.894 70.2523 52.127 72.8605 54.9519C76.1243 58.4903 78.1181 62.4768 78.1181 62.4768L78.1091 62.4866ZM89.4807 40.3926C89.4682 40.3901 89.4707 40.3901 89.4807 40.3926V40.3926Z" fill="#F38FBB"/>
<path d="M49.6472 93.6181C49.6472 93.6181 49.2409 93.4701 48.5053 93.1566C47.7674 92.8441 46.7011 92.353 45.3743 91.6614C44.0498 90.9675 42.4608 90.0758 40.7272 88.9036C38.9934 87.7346 37.0898 86.3171 35.1719 84.5677C33.2555 82.82 31.3113 80.7501 29.5426 78.3106C27.7713 75.8765 26.2075 73.0501 25.0558 69.9204C23.9154 66.7902 23.2171 63.3551 23.0878 59.8435C22.9513 56.3337 23.2917 52.7568 24.0544 49.2913L24.1163 48.9635L24.2002 48.643L24.3688 48.0017L24.7069 46.7183L25.0471 45.4349L25.4591 44.1826C25.7364 43.3472 26.0134 42.5133 26.2897 41.682C26.6163 40.8734 26.9419 40.067 27.2663 39.264C27.4293 38.8618 27.5922 38.4604 27.7547 38.06C27.9093 37.654 28.1162 37.2807 28.294 36.8908C28.6599 36.117 29.0387 35.3535 29.4141 34.5932L29.6954 34.024L29.8237 33.7624L29.9634 33.4919C30.147 33.1301 30.3439 32.7772 30.5328 32.4216C30.928 31.7029 31.2511 31.0356 31.6096 30.353C33.0368 27.6247 34.3395 24.963 35.4602 22.4228C35.9934 21.145 36.5214 19.9042 36.9252 18.6847C37.3543 17.4722 37.7122 16.2862 37.9822 15.1473C38.2485 14.0067 38.4479 12.9091 38.5503 11.8634C38.6555 10.8186 38.6533 9.83051 38.5866 8.90523C38.4474 7.05417 37.9512 5.4708 37.3658 4.20771C37.0527 3.58994 36.7657 3.0215 36.4618 2.55623C36.3191 2.31683 36.1723 2.10398 36.036 1.90891C35.9035 1.71058 35.7798 1.53053 35.6621 1.37427C35.4361 1.05324 35.2443 0.820107 35.1198 0.657087C34.9945 0.493817 34.9302 0.409427 34.9302 0.409427L35.2876 0C35.2876 0 35.3798 0.0575953 35.5584 0.16953C35.7384 0.280714 36.0009 0.451497 36.3343 0.693147C36.674 0.927034 37.0757 1.24155 37.5271 1.64472C37.9872 2.03962 38.4842 2.5387 39.0002 3.14595C39.5026 3.76323 40.0281 4.48843 40.5095 5.3471C40.9827 6.20802 41.398 7.20167 41.7146 8.30073C42.0375 9.39855 42.2479 10.6035 42.3503 11.8716C42.4385 13.1392 42.4214 14.4692 42.2932 15.8342C42.0435 18.5675 41.3634 21.4224 40.3916 24.3057C39.418 27.1895 38.1563 30.1091 36.6226 32.9901C36.2281 33.703 35.8244 34.4605 35.4233 35.1421C35.2207 35.4902 35.0243 35.8433 34.8134 36.1899L34.6574 36.4513L34.4993 36.7278L34.208 37.2381C33.4551 38.6121 32.5659 39.9521 31.8914 41.3967C31.5297 42.1107 31.1662 42.8274 30.8018 43.5463C30.4899 44.2853 30.1768 45.026 29.8635 45.7685L29.3928 46.8866L29.0154 48.0327L28.6354 49.1814L28.4445 49.7568L28.3491 50.0445L28.2762 50.3365C27.4143 53.4412 26.9402 56.6302 26.8886 59.7764C26.849 62.9211 27.246 66.0237 28.0896 68.9208C28.936 71.8173 30.2081 74.491 31.68 76.8782C33.155 79.2666 34.8437 81.3606 36.5487 83.1631C38.2562 84.9653 39.9683 86.4941 41.5603 87.7604C43.1511 89.0305 44.6259 90.0307 45.8562 90.83C47.0913 91.6223 48.094 92.1988 48.7876 92.5684C49.4819 92.941 49.8574 93.1173 49.8574 93.1173L49.647 93.6156L49.6472 93.6181Z" fill="#F38FBB"/>
<path d="M117.715 89.9596C117.715 89.9596 119.156 89.5862 121.698 89.028C122.969 88.7533 124.514 88.4175 126.296 88.0875C128.077 87.7512 130.093 87.3981 132.299 87.0497C136.711 86.3564 141.888 85.6782 147.483 85.2846C150.28 85.0965 153.181 84.9761 156.138 84.964C159.095 84.9483 162.11 85.0482 165.125 85.3196C168.14 85.5893 171.159 86.0138 174.111 86.6676C177.063 87.3189 179.95 88.1976 182.677 89.3603C184.037 89.95 185.355 90.6126 186.605 91.3644C186.915 91.5577 187.227 91.744 187.529 91.9431C187.83 92.1489 188.128 92.354 188.425 92.5574C188.707 92.7564 188.989 92.9548 189.268 93.1511C189.394 93.2385 189.539 93.3537 189.683 93.4689L190.112 93.8092C190.68 94.2617 191.176 94.7199 191.668 95.2085C191.916 95.4449 192.153 95.6923 192.377 95.948C192.607 96.1976 192.829 96.4536 193.035 96.7192C193.881 97.7635 194.586 98.8763 195.144 100.006C196.276 102.261 196.825 104.552 196.961 106.558C197.097 108.571 196.86 110.298 196.514 111.651C196.336 112.329 196.14 112.918 195.952 113.42C195.759 113.921 195.561 114.332 195.405 114.662C195.069 115.318 194.853 115.643 194.853 115.643L194.366 115.504C194.366 115.504 194.357 115.127 194.342 114.42C194.335 114.072 194.316 113.646 194.279 113.151C194.257 112.66 194.197 112.098 194.113 111.482C193.959 110.253 193.67 108.803 193.155 107.261C192.64 105.718 191.882 104.088 190.802 102.482C189.713 100.888 188.346 99.2667 186.725 97.6663L186.431 97.3776C186.334 97.2812 186.238 97.1845 186.108 97.0728C185.884 96.867 185.657 96.6599 185.43 96.4511C185.201 96.2672 184.969 96.0819 184.737 95.8959C184.5 95.7138 184.251 95.5408 184.007 95.3603C183.011 94.6593 181.929 94.0033 180.776 93.4065C178.468 92.2113 175.877 91.2692 173.163 90.5325C170.446 89.7945 167.603 89.2539 164.727 88.859C158.97 88.0852 153.095 87.8203 147.583 87.8796C144.826 87.9022 142.156 87.9833 139.625 88.1163C137.094 88.25 134.7 88.4263 132.493 88.6239C130.286 88.8217 128.265 89.0375 126.476 89.2524C124.686 89.4697 123.126 89.6623 121.843 89.8419C119.278 90.1977 117.822 90.4554 117.822 90.4554L117.712 89.9646L117.715 89.9596Z" fill="#EE3E80"/>
<path d="M116.863 83.6842C116.863 83.6842 150.209 80.0604 167.244 69.1895C185.502 57.5382 173.889 35.0279 161.263 35.3084C144.953 35.6708 136.409 47.8749 133.355 50.1655C130.301 52.4558 126.61 57.6048 126.61 57.6048C126.61 57.6048 134.119 27.1294 120.118 25.3489C106.118 23.5685 103.164 41.1941 107.077 53.6082C111.247 66.8326 116.865 83.6829 116.865 83.6829L116.863 83.6842Z" fill="url(#paint0_linear)"/>
<path d="M88.9824 94.7375C88.9824 94.7375 98.9356 78.4132 99.3123 61.7629C99.6886 45.1114 90.6634 40.659 85.9977 41.0927C81.3318 41.5267 80.3116 49.8302 79.5584 56.1461C78.8055 62.4621 79.196 66.6548 79.196 66.6548C79.196 66.6548 72.9578 52.7748 60.348 46.1812C47.7382 39.587 37.6102 43.9637 35.3509 54.8733C33.0916 65.7823 42.8567 82.186 60.8921 88.579C80.8301 95.6432 88.9857 94.7367 88.9857 94.7367L88.9824 94.7375Z" fill="url(#paint1_linear)"/>
<path d="M11.48 145H9.04C8.20667 145 7.58667 144.833 7.18 144.5C6.78 144.167 6.58 143.653 6.58 142.96V139.85C6.58 139.157 6.78 138.643 7.18 138.31C7.58667 137.97 8.20667 137.8 9.04 137.8H11.48C11.6067 137.8 11.6967 137.83 11.75 137.89C11.81 137.943 11.84 138.033 11.84 138.16V139.37C11.84 139.497 11.81 139.59 11.75 139.65C11.6967 139.703 11.6067 139.73 11.48 139.73H9.47C9.26333 139.73 9.11 139.773 9.01 139.86C8.91 139.94 8.86 140.063 8.86 140.23V142.61C8.86 142.777 8.91 142.9 9.01 142.98C9.11 143.053 9.26333 143.09 9.47 143.09H11.48C11.6067 143.09 11.6967 143.12 11.75 143.18C11.81 143.233 11.84 143.323 11.84 143.45V144.64C11.84 144.767 11.81 144.86 11.75 144.92C11.6967 144.973 11.6067 145 11.48 145ZM15.5793 139.9L15.1093 141.42H16.6793L16.2093 139.9C16.1826 139.84 16.1526 139.797 16.1193 139.77C16.0926 139.743 16.0593 139.73 16.0193 139.73H15.7693C15.7293 139.73 15.6926 139.743 15.6593 139.77C15.6326 139.797 15.606 139.84 15.5793 139.9ZM15.0093 144.64C15.0093 144.767 14.9793 144.86 14.9193 144.92C14.866 144.973 14.776 145 14.6493 145H13.1793C13.0526 145 12.9593 144.973 12.8993 144.92C12.846 144.86 12.8193 144.767 12.8193 144.64V142C12.8193 141.8 12.8493 141.57 12.9093 141.31C12.976 141.05 13.076 140.747 13.2093 140.4L14.0793 138.13C14.1193 138.017 14.1793 137.933 14.2593 137.88C14.346 137.827 14.456 137.8 14.5893 137.8H17.2793C17.406 137.8 17.5093 137.827 17.5893 137.88C17.676 137.933 17.7393 138.017 17.7793 138.13L18.6493 140.4C18.7826 140.747 18.8793 141.05 18.9393 141.31C19.006 141.57 19.0393 141.8 19.0393 142V144.64C19.0393 144.767 19.0093 144.86 18.9493 144.92C18.896 144.973 18.806 145 18.6793 145H17.1693C17.036 145 16.936 144.973 16.8693 144.92C16.8093 144.86 16.7793 144.767 16.7793 144.64V143.24H15.0093V144.64ZM25.724 145H20.634C20.5073 145 20.414 144.973 20.354 144.92C20.3007 144.86 20.274 144.767 20.274 144.64V138.16C20.274 138.033 20.3007 137.943 20.354 137.89C20.414 137.83 20.5073 137.8 20.634 137.8H22.184C22.3107 137.8 22.4007 137.83 22.454 137.89C22.514 137.943 22.544 138.033 22.544 138.16V143.11H23.914V141.49C23.914 141.363 23.9407 141.273 23.994 141.22C24.054 141.16 24.1473 141.13 24.274 141.13H25.724C25.8507 141.13 25.9407 141.16 25.994 141.22C26.054 141.273 26.084 141.363 26.084 141.49V144.64C26.084 144.767 26.054 144.86 25.994 144.92C25.9407 144.973 25.8507 145 25.724 145ZM32.0171 145H29.5771C28.7438 145 28.1238 144.833 27.7171 144.5C27.3171 144.167 27.1171 143.653 27.1171 142.96V139.85C27.1171 139.157 27.3171 138.643 27.7171 138.31C28.1238 137.97 28.7438 137.8 29.5771 137.8H32.0171C32.1438 137.8 32.2338 137.83 32.2871 137.89C32.3471 137.943 32.3771 138.033 32.3771 138.16V139.37C32.3771 139.497 32.3471 139.59 32.2871 139.65C32.2338 139.703 32.1438 139.73 32.0171 139.73H30.0071C29.8004 139.73 29.6471 139.773 29.5471 139.86C29.4471 139.94 29.3971 140.063 29.3971 140.23V142.61C29.3971 142.777 29.4471 142.9 29.5471 142.98C29.6471 143.053 29.8004 143.09 30.0071 143.09H32.0171C32.1438 143.09 32.2338 143.12 32.2871 143.18C32.3471 143.233 32.3771 143.323 32.3771 143.45V144.64C32.3771 144.767 32.3471 144.86 32.2871 144.92C32.2338 144.973 32.1438 145 32.0171 145ZM39.6364 143.11C39.6364 143.417 39.5897 143.697 39.4964 143.95C39.4097 144.197 39.2497 144.41 39.0164 144.59C38.7897 144.763 38.4764 144.9 38.0764 145C37.6764 145.1 37.1664 145.15 36.5464 145.15C35.9264 145.15 35.4164 145.1 35.0164 145C34.6164 144.9 34.2997 144.763 34.0664 144.59C33.8397 144.41 33.6797 144.197 33.5864 143.95C33.4997 143.697 33.4564 143.417 33.4564 143.11V138.16C33.4564 138.033 33.4831 137.943 33.5364 137.89C33.5964 137.83 33.6897 137.8 33.8164 137.8H35.3864C35.5131 137.8 35.6031 137.83 35.6564 137.89C35.7164 137.943 35.7464 138.033 35.7464 138.16V142.72C35.7464 142.853 35.7964 142.967 35.8964 143.06C35.9964 143.147 36.2197 143.19 36.5664 143.19C36.9197 143.19 37.1464 143.147 37.2464 143.06C37.3464 142.967 37.3964 142.853 37.3964 142.72V138.16C37.3964 138.033 37.4231 137.943 37.4764 137.89C37.5364 137.83 37.6297 137.8 37.7564 137.8H39.2764C39.4031 137.8 39.4931 137.83 39.5464 137.89C39.6064 137.943 39.6364 138.033 39.6364 138.16V143.11ZM46.4173 145H41.3273C41.2007 145 41.1073 144.973 41.0473 144.92C40.994 144.86 40.9673 144.767 40.9673 144.64V138.16C40.9673 138.033 40.994 137.943 41.0473 137.89C41.1073 137.83 41.2007 137.8 41.3273 137.8H42.8773C43.004 137.8 43.094 137.83 43.1473 137.89C43.2073 137.943 43.2373 138.033 43.2373 138.16V143.11H44.6073V141.49C44.6073 141.363 44.634 141.273 44.6873 141.22C44.7473 141.16 44.8407 141.13 44.9673 141.13H46.4173C46.544 141.13 46.634 141.16 46.6873 141.22C46.7473 141.273 46.7773 141.363 46.7773 141.49V144.64C46.7773 144.767 46.7473 144.86 46.6873 144.92C46.634 144.973 46.544 145 46.4173 145ZM50.5305 139.9L50.0605 141.42H51.6305L51.1605 139.9C51.1338 139.84 51.1038 139.797 51.0705 139.77C51.0438 139.743 51.0105 139.73 50.9705 139.73H50.7205C50.6805 139.73 50.6438 139.743 50.6105 139.77C50.5838 139.797 50.5571 139.84 50.5305 139.9ZM49.9605 144.64C49.9605 144.767 49.9305 144.86 49.8705 144.92C49.8171 144.973 49.7271 145 49.6005 145H48.1305C48.0038 145 47.9105 144.973 47.8505 144.92C47.7971 144.86 47.7705 144.767 47.7705 144.64V142C47.7705 141.8 47.8005 141.57 47.8605 141.31C47.9271 141.05 48.0271 140.747 48.1605 140.4L49.0305 138.13C49.0705 138.017 49.1305 137.933 49.2105 137.88C49.2971 137.827 49.4071 137.8 49.5405 137.8H52.2305C52.3571 137.8 52.4605 137.827 52.5405 137.88C52.6271 137.933 52.6905 138.017 52.7305 138.13L53.6005 140.4C53.7338 140.747 53.8305 141.05 53.8905 141.31C53.9571 141.57 53.9905 141.8 53.9905 142V144.64C53.9905 144.767 53.9605 144.86 53.9005 144.92C53.8471 144.973 53.7571 145 53.6305 145H52.1205C51.9871 145 51.8871 144.973 51.8205 144.92C51.7605 144.86 51.7305 144.767 51.7305 144.64V143.24H49.9605V144.64ZM58.9552 145H55.5852C55.4585 145 55.3652 144.973 55.3052 144.92C55.2518 144.86 55.2252 144.767 55.2252 144.64V138.16C55.2252 138.033 55.2518 137.943 55.3052 137.89C55.3652 137.83 55.4585 137.8 55.5852 137.8H58.9552C59.7885 137.8 60.4052 137.967 60.8052 138.3C61.2118 138.633 61.4152 139.147 61.4152 139.84V142.96C61.4152 143.653 61.2118 144.167 60.8052 144.5C60.4052 144.833 59.7885 145 58.9552 145ZM57.4952 139.71V143.11H58.6852C58.8452 143.11 58.9618 143.07 59.0352 142.99C59.1152 142.91 59.1552 142.787 59.1552 142.62V140.19C59.1552 140.023 59.1152 139.903 59.0352 139.83C58.9618 139.75 58.8452 139.71 58.6852 139.71H57.4952ZM68.7861 143.11C68.7861 143.417 68.7394 143.697 68.6461 143.95C68.5594 144.197 68.3994 144.41 68.1661 144.59C67.9394 144.763 67.6228 144.9 67.2161 145C66.8161 145.1 66.3061 145.15 65.6861 145.15C65.0661 145.15 64.5528 145.1 64.1461 145C63.7394 144.9 63.4194 144.763 63.1861 144.59C62.9594 144.41 62.7994 144.197 62.7061 143.95C62.6194 143.697 62.5761 143.417 62.5761 143.11V139.7C62.5761 139.393 62.6194 139.117 62.7061 138.87C62.7994 138.617 62.9594 138.4 63.1861 138.22C63.4194 138.04 63.7394 137.9 64.1461 137.8C64.5528 137.7 65.0661 137.65 65.6861 137.65C66.3061 137.65 66.8161 137.7 67.2161 137.8C67.6228 137.9 67.9394 138.04 68.1661 138.22C68.3994 138.4 68.5594 138.617 68.6461 138.87C68.7394 139.117 68.7861 139.393 68.7861 139.7V143.11ZM64.8461 142.75C64.8461 142.883 64.8961 142.997 64.9961 143.09C65.0961 143.177 65.3261 143.22 65.6861 143.22C66.0461 143.22 66.2761 143.177 66.3761 143.09C66.4761 142.997 66.5261 142.883 66.5261 142.75V140.06C66.5261 139.933 66.4761 139.827 66.3761 139.74C66.2761 139.647 66.0461 139.6 65.6861 139.6C65.3261 139.6 65.0961 139.647 64.9961 139.74C64.8961 139.827 64.8461 139.933 64.8461 140.06V142.75ZM72.3191 139.6V140.88H73.0691C73.2425 140.88 73.3591 140.837 73.4191 140.75C73.4791 140.657 73.5091 140.543 73.5091 140.41V140.07C73.5091 139.937 73.4791 139.827 73.4191 139.74C73.3591 139.647 73.2425 139.6 73.0691 139.6H72.3191ZM71.9591 145H70.4191C70.2925 145 70.1991 144.973 70.1391 144.92C70.0858 144.86 70.0591 144.767 70.0591 144.64V138.16C70.0591 138.033 70.0858 137.943 70.1391 137.89C70.1991 137.83 70.2925 137.8 70.4191 137.8H73.7491C74.4958 137.8 75.0091 137.957 75.2891 138.27C75.5758 138.577 75.7191 138.977 75.7191 139.47V139.93C75.7191 140.21 75.6758 140.45 75.5891 140.65C75.5091 140.843 75.3658 140.983 75.1591 141.07C75.5191 141.11 75.8091 141.257 76.0291 141.51C76.2558 141.763 76.3691 142.1 76.3691 142.52V144.64C76.3691 144.767 76.3391 144.86 76.2791 144.92C76.2258 144.973 76.1358 145 76.0091 145H74.4591C74.3325 145 74.2391 144.973 74.1791 144.92C74.1258 144.86 74.0991 144.767 74.0991 144.64V143.11C74.0991 142.963 74.0691 142.857 74.0091 142.79C73.9558 142.717 73.8591 142.68 73.7191 142.68H72.3191V144.64C72.3191 144.767 72.2891 144.86 72.2291 144.92C72.1758 144.973 72.0858 145 71.9591 145ZM83.4669 145H80.0969C79.9702 145 79.8769 144.973 79.8169 144.92C79.7635 144.86 79.7369 144.767 79.7369 144.64V138.16C79.7369 138.033 79.7635 137.943 79.8169 137.89C79.8769 137.83 79.9702 137.8 80.0969 137.8H83.4669C84.3002 137.8 84.9169 137.967 85.3169 138.3C85.7235 138.633 85.9269 139.147 85.9269 139.84V142.96C85.9269 143.653 85.7235 144.167 85.3169 144.5C84.9169 144.833 84.3002 145 83.4669 145ZM82.0069 139.71V143.11H83.1969C83.3569 143.11 83.4735 143.07 83.5469 142.99C83.6269 142.91 83.6669 142.787 83.6669 142.62V140.19C83.6669 140.023 83.6269 139.903 83.5469 139.83C83.4735 139.75 83.3569 139.71 83.1969 139.71H82.0069ZM92.1978 145H87.5578C87.4311 145 87.3378 144.973 87.2778 144.92C87.2245 144.86 87.1978 144.767 87.1978 144.64V138.16C87.1978 138.033 87.2245 137.943 87.2778 137.89C87.3378 137.83 87.4311 137.8 87.5578 137.8H92.1978C92.3245 137.8 92.4145 137.83 92.4678 137.89C92.5278 137.943 92.5578 138.033 92.5578 138.16V139.33C92.5578 139.457 92.5278 139.55 92.4678 139.61C92.4145 139.663 92.3245 139.69 92.1978 139.69H89.4378V140.46H91.3878C91.5145 140.46 91.6045 140.49 91.6578 140.55C91.7178 140.603 91.7478 140.693 91.7478 140.82V141.89C91.7478 142.017 91.7178 142.11 91.6578 142.17C91.6045 142.223 91.5145 142.25 91.3878 142.25H89.4378V143.11H92.1978C92.3245 143.11 92.4145 143.14 92.4678 143.2C92.5278 143.253 92.5578 143.343 92.5578 143.47V144.64C92.5578 144.767 92.5278 144.86 92.4678 144.92C92.4145 144.973 92.3245 145 92.1978 145ZM100.777 145H98.3369C97.5035 145 96.8835 144.833 96.4769 144.5C96.0769 144.167 95.8769 143.653 95.8769 142.96V139.85C95.8769 139.157 96.0769 138.643 96.4769 138.31C96.8835 137.97 97.5035 137.8 98.3369 137.8H100.777C100.904 137.8 100.994 137.83 101.047 137.89C101.107 137.943 101.137 138.033 101.137 138.16V139.37C101.137 139.497 101.107 139.59 101.047 139.65C100.994 139.703 100.904 139.73 100.777 139.73H98.7669C98.5602 139.73 98.4069 139.773 98.3069 139.86C98.2069 139.94 98.1569 140.063 98.1569 140.23V142.61C98.1569 142.777 98.2069 142.9 98.3069 142.98C98.4069 143.053 98.5602 143.09 98.7669 143.09H100.777C100.904 143.09 100.994 143.12 101.047 143.18C101.107 143.233 101.137 143.323 101.137 143.45V144.64C101.137 144.767 101.107 144.86 101.047 144.92C100.994 144.973 100.904 145 100.777 145ZM108.317 143.11C108.317 143.417 108.271 143.697 108.177 143.95C108.091 144.197 107.931 144.41 107.697 144.59C107.471 144.763 107.154 144.9 106.747 145C106.347 145.1 105.837 145.15 105.217 145.15C104.597 145.15 104.084 145.1 103.677 145C103.271 144.9 102.951 144.763 102.717 144.59C102.491 144.41 102.331 144.197 102.237 143.95C102.151 143.697 102.107 143.417 102.107 143.11V139.7C102.107 139.393 102.151 139.117 102.237 138.87C102.331 138.617 102.491 138.4 102.717 138.22C102.951 138.04 103.271 137.9 103.677 137.8C104.084 137.7 104.597 137.65 105.217 137.65C105.837 137.65 106.347 137.7 106.747 137.8C107.154 137.9 107.471 138.04 107.697 138.22C107.931 138.4 108.091 138.617 108.177 138.87C108.271 139.117 108.317 139.393 108.317 139.7V143.11ZM104.377 142.75C104.377 142.883 104.427 142.997 104.527 143.09C104.627 143.177 104.857 143.22 105.217 143.22C105.577 143.22 105.807 143.177 105.907 143.09C106.007 142.997 106.057 142.883 106.057 142.75V140.06C106.057 139.933 106.007 139.827 105.907 139.74C105.807 139.647 105.577 139.6 105.217 139.6C104.857 139.6 104.627 139.647 104.527 139.74C104.427 139.827 104.377 139.933 104.377 140.06V142.75ZM111.44 145H109.95C109.824 145 109.73 144.973 109.67 144.92C109.617 144.86 109.59 144.767 109.59 144.64V138.16C109.59 138.033 109.617 137.943 109.67 137.89C109.73 137.83 109.824 137.8 109.95 137.8H111.56C111.667 137.8 111.754 137.823 111.82 137.87C111.894 137.917 111.96 137.993 112.02 138.1L112.92 139.73C112.954 139.79 112.98 139.833 113 139.86C113.027 139.887 113.06 139.9 113.1 139.9H113.19C113.23 139.9 113.26 139.887 113.28 139.86C113.307 139.833 113.337 139.79 113.37 139.73L114.26 138.1C114.32 137.993 114.384 137.917 114.45 137.87C114.524 137.823 114.614 137.8 114.72 137.8H116.34C116.467 137.8 116.557 137.83 116.61 137.89C116.67 137.943 116.7 138.033 116.7 138.16V144.64C116.7 144.767 116.67 144.86 116.61 144.92C116.557 144.973 116.467 145 116.34 145H114.8C114.674 145 114.58 144.973 114.52 144.92C114.467 144.86 114.44 144.767 114.44 144.64V141.12L113.85 142.21C113.79 142.323 113.717 142.407 113.63 142.46C113.55 142.507 113.447 142.53 113.32 142.53H112.92C112.794 142.53 112.687 142.507 112.6 142.46C112.52 142.407 112.45 142.323 112.39 142.21L111.8 141.12V144.64C111.8 144.767 111.77 144.86 111.71 144.92C111.657 144.973 111.567 145 111.44 145ZM119.987 145H118.437C118.31 145 118.217 144.973 118.157 144.92C118.103 144.86 118.077 144.767 118.077 144.64V138.16C118.077 138.033 118.103 137.943 118.157 137.89C118.217 137.83 118.31 137.8 118.437 137.8H121.497C122.403 137.8 123.023 137.98 123.357 138.34C123.69 138.7 123.857 139.17 123.857 139.75V141.03C123.857 141.61 123.69 142.08 123.357 142.44C123.023 142.8 122.403 142.98 121.497 142.98H120.347V144.64C120.347 144.767 120.317 144.86 120.257 144.92C120.203 144.973 120.113 145 119.987 145ZM120.327 139.67V141.18H121.227C121.42 141.18 121.547 141.13 121.607 141.03C121.667 140.93 121.697 140.817 121.697 140.69V140.16C121.697 140.033 121.667 139.92 121.607 139.82C121.547 139.72 121.42 139.67 121.227 139.67H120.327ZM127.405 139.9L126.935 141.42H128.505L128.035 139.9C128.009 139.84 127.979 139.797 127.945 139.77C127.919 139.743 127.885 139.73 127.845 139.73H127.595C127.555 139.73 127.519 139.743 127.485 139.77C127.459 139.797 127.432 139.84 127.405 139.9ZM126.835 144.64C126.835 144.767 126.805 144.86 126.745 144.92C126.692 144.973 126.602 145 126.475 145H125.005C124.879 145 124.785 144.973 124.725 144.92C124.672 144.86 124.645 144.767 124.645 144.64V142C124.645 141.8 124.675 141.57 124.735 141.31C124.802 141.05 124.902 140.747 125.035 140.4L125.905 138.13C125.945 138.017 126.005 137.933 126.085 137.88C126.172 137.827 126.282 137.8 126.415 137.8H129.105C129.232 137.8 129.335 137.827 129.415 137.88C129.502 137.933 129.565 138.017 129.605 138.13L130.475 140.4C130.609 140.747 130.705 141.05 130.765 141.31C130.832 141.57 130.865 141.8 130.865 142V144.64C130.865 144.767 130.835 144.86 130.775 144.92C130.722 144.973 130.632 145 130.505 145H128.995C128.862 145 128.762 144.973 128.695 144.92C128.635 144.86 128.605 144.767 128.605 144.64V143.24H126.835V144.64ZM135.1 145H133.48C133.353 145 133.26 144.973 133.2 144.92C133.146 144.86 133.12 144.767 133.12 144.64V139.73H131.65C131.523 139.73 131.43 139.703 131.37 139.65C131.316 139.59 131.29 139.497 131.29 139.37V138.16C131.29 138.033 131.316 137.943 131.37 137.89C131.43 137.83 131.523 137.8 131.65 137.8H136.93C137.056 137.8 137.146 137.83 137.2 137.89C137.26 137.943 137.29 138.033 137.29 138.16V139.37C137.29 139.497 137.26 139.59 137.2 139.65C137.146 139.703 137.056 139.73 136.93 139.73H135.46V144.64C135.46 144.767 135.43 144.86 135.37 144.92C135.316 144.973 135.226 145 135.1 145ZM138.462 145C138.336 145 138.242 144.973 138.182 144.92C138.129 144.86 138.102 144.767 138.102 144.64V143.45C138.102 143.323 138.129 143.233 138.182 143.18C138.242 143.12 138.336 143.09 138.462 143.09H139.452V139.73H138.462C138.336 139.73 138.242 139.703 138.182 139.65C138.129 139.59 138.102 139.497 138.102 139.37V138.16C138.102 138.033 138.129 137.943 138.182 137.89C138.242 137.83 138.336 137.8 138.462 137.8H142.722C142.849 137.8 142.939 137.83 142.992 137.89C143.052 137.943 143.082 138.033 143.082 138.16V139.37C143.082 139.497 143.052 139.59 142.992 139.65C142.939 139.703 142.849 139.73 142.722 139.73H141.752V143.09H142.722C142.849 143.09 142.939 143.12 142.992 143.18C143.052 143.233 143.082 143.323 143.082 143.45V144.64C143.082 144.767 143.052 144.86 142.992 144.92C142.939 144.973 142.849 145 142.722 145H138.462ZM148.517 145H144.677C144.55 145 144.457 144.973 144.397 144.92C144.344 144.86 144.317 144.767 144.317 144.64V138.16C144.317 138.033 144.344 137.943 144.397 137.89C144.457 137.83 144.55 137.8 144.677 137.8H147.867C148.52 137.8 149.004 137.927 149.317 138.18C149.63 138.427 149.787 138.81 149.787 139.33V139.81C149.787 140.09 149.737 140.32 149.637 140.5C149.544 140.673 149.397 140.803 149.197 140.89C149.624 140.93 149.94 141.077 150.147 141.33C150.354 141.583 150.457 141.953 150.457 142.44V143.36C150.457 143.92 150.297 144.333 149.977 144.6C149.664 144.867 149.177 145 148.517 145ZM146.567 139.5V140.58H147.417C147.544 140.58 147.637 140.547 147.697 140.48C147.764 140.413 147.797 140.313 147.797 140.18V139.9C147.797 139.767 147.764 139.667 147.697 139.6C147.637 139.533 147.544 139.5 147.417 139.5H146.567ZM146.567 142.12V143.3H147.867C147.994 143.3 148.087 143.267 148.147 143.2C148.214 143.133 148.247 143.033 148.247 142.9V142.51C148.247 142.377 148.214 142.28 148.147 142.22C148.087 142.153 147.994 142.12 147.867 142.12H146.567ZM151.763 145C151.636 145 151.543 144.973 151.483 144.92C151.43 144.86 151.403 144.767 151.403 144.64V143.45C151.403 143.323 151.43 143.233 151.483 143.18C151.543 143.12 151.636 143.09 151.763 143.09H152.753V139.73H151.763C151.636 139.73 151.543 139.703 151.483 139.65C151.43 139.59 151.403 139.497 151.403 139.37V138.16C151.403 138.033 151.43 137.943 151.483 137.89C151.543 137.83 151.636 137.8 151.763 137.8H156.023C156.15 137.8 156.24 137.83 156.293 137.89C156.353 137.943 156.383 138.033 156.383 138.16V139.37C156.383 139.497 156.353 139.59 156.293 139.65C156.24 139.703 156.15 139.73 156.023 139.73H155.053V143.09H156.023C156.15 143.09 156.24 143.12 156.293 143.18C156.353 143.233 156.383 143.323 156.383 143.45V144.64C156.383 144.767 156.353 144.86 156.293 144.92C156.24 144.973 156.15 145 156.023 145H151.763ZM163.068 145H157.978C157.851 145 157.758 144.973 157.698 144.92C157.644 144.86 157.618 144.767 157.618 144.64V138.16C157.618 138.033 157.644 137.943 157.698 137.89C157.758 137.83 157.851 137.8 157.978 137.8H159.528C159.654 137.8 159.744 137.83 159.798 137.89C159.858 137.943 159.888 138.033 159.888 138.16V143.11H161.258V141.49C161.258 141.363 161.284 141.273 161.338 141.22C161.398 141.16 161.491 141.13 161.618 141.13H163.068C163.194 141.13 163.284 141.16 163.338 141.22C163.398 141.273 163.428 141.363 163.428 141.49V144.64C163.428 144.767 163.398 144.86 163.338 144.92C163.284 144.973 163.194 145 163.068 145ZM164.771 145C164.644 145 164.551 144.973 164.491 144.92C164.438 144.86 164.411 144.767 164.411 144.64V143.45C164.411 143.323 164.438 143.233 164.491 143.18C164.551 143.12 164.644 143.09 164.771 143.09H165.761V139.73H164.771C164.644 139.73 164.551 139.703 164.491 139.65C164.438 139.59 164.411 139.497 164.411 139.37V138.16C164.411 138.033 164.438 137.943 164.491 137.89C164.551 137.83 164.644 137.8 164.771 137.8H169.031C169.158 137.8 169.248 137.83 169.301 137.89C169.361 137.943 169.391 138.033 169.391 138.16V139.37C169.391 139.497 169.361 139.59 169.301 139.65C169.248 139.703 169.158 139.73 169.031 139.73H168.061V143.09H169.031C169.158 143.09 169.248 143.12 169.301 143.18C169.361 143.233 169.391 143.323 169.391 143.45V144.64C169.391 144.767 169.361 144.86 169.301 144.92C169.248 144.973 169.158 145 169.031 145H164.771ZM174.356 145H170.986C170.859 145 170.766 144.973 170.706 144.92C170.652 144.86 170.626 144.767 170.626 144.64V138.16C170.626 138.033 170.652 137.943 170.706 137.89C170.766 137.83 170.859 137.8 170.986 137.8H174.356C175.189 137.8 175.806 137.967 176.206 138.3C176.612 138.633 176.816 139.147 176.816 139.84V142.96C176.816 143.653 176.612 144.167 176.206 144.5C175.806 144.833 175.189 145 174.356 145ZM172.896 139.71V143.11H174.086C174.246 143.11 174.362 143.07 174.436 142.99C174.516 142.91 174.556 142.787 174.556 142.62V140.19C174.556 140.023 174.516 139.903 174.436 139.83C174.362 139.75 174.246 139.71 174.086 139.71H172.896ZM180.696 139.9L180.226 141.42H181.796L181.326 139.9C181.3 139.84 181.27 139.797 181.236 139.77C181.21 139.743 181.176 139.73 181.136 139.73H180.886C180.846 139.73 180.81 139.743 180.776 139.77C180.75 139.797 180.723 139.84 180.696 139.9ZM180.126 144.64C180.126 144.767 180.096 144.86 180.036 144.92C179.983 144.973 179.893 145 179.766 145H178.296C178.17 145 178.076 144.973 178.016 144.92C177.963 144.86 177.936 144.767 177.936 144.64V142C177.936 141.8 177.966 141.57 178.026 141.31C178.093 141.05 178.193 140.747 178.326 140.4L179.196 138.13C179.236 138.017 179.296 137.933 179.376 137.88C179.463 137.827 179.573 137.8 179.706 137.8H182.396C182.523 137.8 182.626 137.827 182.706 137.88C182.793 137.933 182.856 138.017 182.896 138.13L183.766 140.4C183.9 140.747 183.996 141.05 184.056 141.31C184.123 141.57 184.156 141.8 184.156 142V144.64C184.156 144.767 184.126 144.86 184.066 144.92C184.013 144.973 183.923 145 183.796 145H182.286C182.153 145 182.053 144.973 181.986 144.92C181.926 144.86 181.896 144.767 181.896 144.64V143.24H180.126V144.64ZM189.121 145H185.751C185.625 145 185.531 144.973 185.471 144.92C185.418 144.86 185.391 144.767 185.391 144.64V138.16C185.391 138.033 185.418 137.943 185.471 137.89C185.531 137.83 185.625 137.8 185.751 137.8H189.121C189.955 137.8 190.571 137.967 190.971 138.3C191.378 138.633 191.581 139.147 191.581 139.84V142.96C191.581 143.653 191.378 144.167 190.971 144.5C190.571 144.833 189.955 145 189.121 145ZM187.661 139.71V143.11H188.851C189.011 143.11 189.128 143.07 189.201 142.99C189.281 142.91 189.321 142.787 189.321 142.62V140.19C189.321 140.023 189.281 139.903 189.201 139.83C189.128 139.75 189.011 139.71 188.851 139.71H187.661ZM197.852 145H193.212C193.085 145 192.992 144.973 192.932 144.92C192.879 144.86 192.852 144.767 192.852 144.64V138.16C192.852 138.033 192.879 137.943 192.932 137.89C192.992 137.83 193.085 137.8 193.212 137.8H197.852C197.979 137.8 198.069 137.83 198.122 137.89C198.182 137.943 198.212 138.033 198.212 138.16V139.33C198.212 139.457 198.182 139.55 198.122 139.61C198.069 139.663 197.979 139.69 197.852 139.69H195.092V140.46H197.042C197.169 140.46 197.259 140.49 197.312 140.55C197.372 140.603 197.402 140.693 197.402 140.82V141.89C197.402 142.017 197.372 142.11 197.312 142.17C197.259 142.223 197.169 142.25 197.042 142.25H195.092V143.11H197.852C197.979 143.11 198.069 143.14 198.122 143.2C198.182 143.253 198.212 143.343 198.212 143.47V144.64C198.212 144.767 198.182 144.86 198.122 144.92C198.069 144.973 197.979 145 197.852 145Z" fill="#F970A3"/>
<defs>
<linearGradient id="paint0_linear" x1="158.996" y1="40.365" x2="117.137" y2="57.7663" gradientUnits="userSpaceOnUse">
<stop stop-color="white"/>
<stop offset="0.1801" stop-color="#FACBDD"/>
<stop offset="0.3796" stop-color="#F699BC"/>
<stop offset="0.568" stop-color="#F372A2"/>
<stop offset="0.7398" stop-color="#F0558F"/>
<stop offset="0.8894" stop-color="#EF4484"/>
<stop offset="1" stop-color="#EE3E80"/>
</linearGradient>
<linearGradient id="paint1_linear" x1="35.0295" y1="67.9181" x2="99.3246" y2="67.9181" gradientUnits="userSpaceOnUse">
<stop stop-color="white"/>
<stop offset="1" stop-color="#F38FBB"/>
</linearGradient>
</defs>
</svg>
