<svg width="326" height="223" viewBox="0 0 326 223" fill="none" xmlns="http://www.w3.org/2000/svg">
<path d="M301.915 75.6675C301.272 72.8656 300.302 70.1101 298.981 67.5111C296.377 62.2897 292.322 57.7646 287.545 54.5057C285.165 52.8552 282.605 51.5249 279.975 50.4736C279.318 50.205 278.657 49.9533 277.989 49.7318C277.653 49.617 277.329 49.4984 276.984 49.3884L275.926 49.0698L275.396 48.9124C275.215 48.8574 275.042 48.8078 274.9 48.7735L273.988 48.5396L273.532 48.4227L273.203 48.3404L272.956 48.2855L271.97 48.0669C266.712 46.9205 261.234 46.3399 255.704 46.63C250.183 46.9358 244.624 48.1193 239.445 50.2877C234.257 52.432 229.505 55.5657 225.438 59.3412C225.047 59.7036 224.668 60.0772 224.288 60.4516C224.281 60.3718 224.277 60.2916 224.27 60.2111C223.785 55.1545 222.746 49.9364 220.225 44.9757C218.967 42.5132 217.297 40.1366 215.179 38.1327C213.077 36.121 210.534 34.5255 207.865 33.4803C205.191 32.4261 202.417 31.8868 199.721 31.7046C198.356 31.612 197.072 31.6009 195.668 31.6604L194.784 31.71L193.72 31.7992C193.044 31.8707 192.37 31.9554 191.7 32.0691C189.018 32.5175 186.386 33.3134 183.909 34.4602C181.435 35.6111 179.112 37.095 177.047 38.865C172.895 42.4024 169.858 47.0267 167.934 51.8836C165.993 56.7567 165.076 61.8566 164.788 66.8731C164.508 71.8999 164.848 76.8684 165.554 81.729C167.009 91.4541 169.885 100.755 173.385 109.709C174.272 111.944 175.181 114.169 176.151 116.363C176.621 117.462 177.132 118.563 177.626 119.663L179.128 122.881C181.076 126.968 182.541 131.148 183.343 135.469C184.128 139.776 184.236 144.17 183.523 148.447C182.825 152.727 181.308 156.87 179.162 160.716C177.006 164.56 174.246 168.112 171.1 171.333C167.948 174.554 164.427 177.462 160.688 180.094C153.193 185.354 144.87 189.533 136.254 192.955C127.623 196.366 118.662 199.011 109.56 201.024C100.456 203.038 91.1958 204.406 81.8875 205.1C72.5816 205.786 63.2137 205.809 53.9471 204.894C44.7065 203.955 35.473 202.141 27.0252 198.482C24.9287 197.562 22.8673 196.516 20.9535 195.326C20.4847 195.045 19.9891 194.712 19.4972 194.386L18.0951 193.409L16.7071 192.382L15.3558 191.313C11.8047 188.41 8.63009 185.037 6.28761 181.141C3.93313 177.261 2.49714 172.846 2.19167 168.302C1.87049 163.757 2.60998 159.138 4.07244 154.755C5.53158 150.361 7.66408 146.178 10.1785 142.243C12.7016 138.308 15.6104 134.614 18.7846 131.15L18.0852 130.497C14.7854 133.897 11.7253 137.556 9.04014 141.492C6.36284 145.428 4.04764 149.651 2.39959 154.174C0.753604 158.684 -0.197941 163.535 0.0347781 168.427C0.238562 173.311 1.68159 178.159 4.12038 182.406C6.54554 186.672 9.85239 190.35 13.5201 193.503L14.9156 194.665L16.3462 195.779C16.8406 196.14 17.2982 196.491 17.8231 196.86C18.308 197.195 18.7842 197.529 19.3215 197.867C21.3916 199.207 23.5307 200.338 25.7348 201.355C30.1395 203.381 34.7451 204.864 39.4044 206.024C44.0691 207.172 48.8 207.979 53.5503 208.541C63.0554 209.656 72.6337 209.806 82.159 209.279C91.6861 208.745 101.173 207.522 110.535 205.63C119.896 203.736 129.136 201.154 138.117 197.772C147.084 194.372 155.825 190.172 163.879 184.71C167.899 181.975 171.738 178.914 175.243 175.442C178.742 171.971 181.896 168.065 184.428 163.714C185.685 161.535 186.782 159.248 187.681 156.873C188.576 154.498 189.253 152.03 189.713 149.522C190.165 147.079 190.376 144.597 190.38 142.119L204.094 140.77C209.097 140.289 214.095 139.76 219.104 139.237C224.108 138.69 229.112 138.079 234.122 137.412C239.135 136.753 244.134 135.922 249.141 134.989C254.144 134.03 259.155 132.95 264.122 131.47C265.34 131.121 266.674 130.695 267.861 130.304L268.754 130.004L269.201 129.854L269.71 129.664C270.34 129.418 270.982 129.2 271.603 128.927C274.109 127.896 276.545 126.672 278.877 125.262C283.538 122.444 287.795 118.885 291.327 114.68C294.881 110.497 297.746 105.707 299.75 100.544C301.745 95.3816 302.886 89.8221 302.857 84.1561C302.865 81.3212 302.543 78.4697 301.922 75.6596L301.915 75.6675ZM269.876 57.782L270.729 57.9688L270.942 58.015C270.955 58.0179 270.952 58.0171 270.957 58.0184L271.07 58.0469L271.526 58.1626L272.439 58.3948C272.601 58.4337 272.73 58.4721 272.848 58.5097L273.22 58.6225L273.966 58.8449L274.744 59.1098C275.269 59.2808 275.781 59.4751 276.286 59.6817C278.313 60.4962 280.251 61.4661 282.012 62.6575C285.552 65.0143 288.452 68.1694 290.388 71.9143C292.33 75.6505 293.376 79.9157 293.489 84.2949C293.621 88.675 292.832 93.1488 291.308 97.3805C289.779 101.613 287.519 105.623 284.653 109.159C283.221 110.927 281.652 112.591 279.966 114.134C278.271 115.666 276.45 117.068 274.527 118.323C272.604 119.578 270.577 120.687 268.472 121.639C267.952 121.892 267.408 122.093 266.877 122.324L266.511 122.478L266.073 122.651L265.197 122.996C264.02 123.45 262.981 123.843 261.804 124.249C257.21 125.846 252.476 127.237 247.686 128.493C245.287 129.114 242.874 129.703 240.451 130.269L233.152 131.911C228.272 132.987 223.361 133.977 218.442 134.972C213.527 135.997 208.594 136.957 203.671 138.005C199.227 138.94 194.785 139.909 190.364 140.966C190.309 138.739 190.098 136.521 189.727 134.342C188.877 129.365 187.237 124.549 185.184 120.097L183.74 116.881C183.282 115.823 182.815 114.777 182.373 113.7C181.465 111.565 180.622 109.409 179.799 107.247C176.557 98.5942 173.971 89.7011 172.766 80.7244C172.18 76.2435 171.949 71.7461 172.259 67.3512C172.41 65.154 172.713 62.9885 173.171 60.8822C173.623 58.7734 174.249 56.729 175.064 54.7938C176.686 50.9245 179.081 47.4949 182.176 44.9563C185.26 42.4111 189.022 40.7655 192.984 40.1932C193.479 40.118 193.977 40.0663 194.475 40.0221L195.175 39.975L196.059 39.9411C197.012 39.92 198.092 39.944 199.079 40.0324C201.086 40.2039 202.987 40.6341 204.694 41.3445C208.12 42.7446 210.692 45.3882 212.386 48.9091C214.091 52.4209 214.919 56.6389 215.224 60.9549C215.525 65.2891 215.311 69.7646 214.806 74.2364L213.342 87.8712C213.342 87.8712 227.944 69.1026 240.409 63.0542C257.456 54.7768 269.873 57.777 269.873 57.777L269.876 57.782Z" fill="#EE3E80"/>
<path d="M128.901 103.12L129.12 96.8366C129.08 93.7265 129.164 90.6354 129.421 87.6034C129.683 84.5718 130.086 81.5951 130.77 78.7821C131.45 75.977 132.428 73.3409 133.751 71.2064C135.083 69.0683 136.703 67.5582 138.672 66.7607C140.641 65.961 143.094 65.7978 145.753 66.2759C146.411 66.3635 147.086 66.5491 147.759 66.697L147.822 66.7115L147.843 66.7164L148.124 66.8053L148.704 66.9896L149.284 67.1739C149.468 67.2351 149.546 67.2888 149.684 67.345C149.931 67.4549 150.181 67.5587 150.434 67.6578C150.704 67.7851 150.998 67.9562 151.281 68.1004C151.866 68.3707 152.396 68.774 152.957 69.1158C155.148 70.6031 157.091 72.6313 158.729 74.9397C160.368 77.2556 161.691 79.8748 162.709 82.6485C163.729 85.4247 164.441 88.3534 164.947 91.3474C165.409 94.3526 165.62 97.4214 165.653 100.515C165.599 102.063 165.625 103.616 165.477 105.17C165.416 105.946 165.378 106.726 165.298 107.503L165.031 109.837C164.959 110.618 164.842 111.394 164.714 112.17L164.351 114.504C164.039 116.049 163.759 117.605 163.398 119.147C162.675 122.231 161.83 125.299 160.859 128.34C160.374 129.861 159.895 131.387 159.324 132.883C158.781 134.39 158.24 135.9 157.615 137.379C157.007 138.865 156.442 140.373 155.771 141.837C155.115 143.306 154.509 144.804 153.789 146.248C153.078 147.696 152.431 149.182 151.695 150.621L149.499 154.958L150.316 155.458L153.073 151.414C153.989 150.062 154.835 148.665 155.705 147.278C156.592 145.901 157.37 144.461 158.2 143.047C159.037 141.636 159.8 140.183 160.555 138.724C161.336 137.277 162.037 135.79 162.742 134.301C163.473 132.823 164.117 131.305 164.769 129.786C166.09 126.756 167.195 123.628 168.222 120.464C168.731 118.88 169.16 117.268 169.621 115.663L170.207 113.223C170.409 112.41 170.6 111.594 170.747 110.767L171.216 108.289C171.356 107.459 171.454 106.62 171.575 105.785C171.842 104.119 171.934 102.423 172.099 100.734C172.291 97.3396 172.285 93.9117 171.984 90.4689C171.66 87.0273 170.986 83.5866 169.942 80.2112C168.894 76.8386 167.448 73.5293 165.492 70.4398C163.531 67.364 161.089 64.4671 158.009 62.1508C157.214 61.6012 156.454 61.0103 155.588 60.5437C155.159 60.2991 154.757 60.0515 154.302 59.8143L152.83 59.1349C152.594 59.0316 152.311 58.8982 152.113 58.8246L151.54 58.618L150.968 58.4113L150.682 58.308L150.538 58.2564L150.26 58.1692L150.175 58.1456C149.274 57.9014 148.388 57.6315 147.443 57.4563C145.586 57.0608 143.62 56.8158 141.565 56.8926C139.52 56.9546 137.388 57.3129 135.345 58.0692C133.302 58.8172 131.381 59.9648 129.757 61.3533C128.132 62.7435 126.766 64.339 125.687 66.011C123.521 69.3633 122.218 72.8912 121.293 76.3625C120.987 77.5382 120.733 78.7106 120.503 79.8818C120.467 79.8347 120.433 79.7863 120.396 79.7388C119.218 78.1614 117.91 76.6741 116.549 75.2356C113.796 72.3834 110.72 69.7943 107.328 67.65C103.925 65.5271 100.233 63.8439 96.4033 62.6852C92.5582 61.5202 88.6524 60.8838 84.6569 60.6912L83.1246 60.645C82.6253 60.6359 82.0718 60.6036 81.6494 60.6305L78.9497 60.7189L78.7323 60.7264L78.6372 60.7359L78.4475 60.7557L78.068 60.7954L77.3091 60.8764L75.7929 61.0409C75.2878 61.0789 74.7831 61.1838 74.278 61.2913L72.7651 61.6062C68.7481 62.5298 64.7969 64.2791 61.4495 66.8685C58.0902 69.4418 55.3959 72.7954 53.5048 76.4336C51.5984 80.0773 50.4584 83.987 49.8582 87.8922C49.2617 91.8049 49.2175 95.7341 49.5841 99.5877C49.9607 103.44 50.7188 107.233 51.8741 110.891C53.0323 114.548 54.5353 118.081 56.3433 121.449C58.1315 124.829 60.321 127.99 62.7512 130.939C63.9391 132.438 65.2883 133.802 66.6115 135.181L68.7163 137.134C69.0557 137.464 69.4351 137.777 69.8233 138.086L70.9736 139.017L72.1265 139.943L73.2326 140.721L74.3383 141.496L74.891 141.884L75.1216 142.044L75.268 142.135L75.561 142.316L80.2572 145.214C81.0285 145.712 81.8523 146.137 82.6579 146.587L85.0843 147.922C86.6787 148.848 88.3738 149.61 90.0376 150.421C96.7207 153.611 103.793 156.051 110.975 157.709C118.16 159.382 125.408 160.363 132.608 161.164C139.813 161.948 146.99 162.538 154.157 163.212C157.736 163.551 161.322 163.877 164.887 164.254L170.243 164.808L175.611 165.419C177.4 165.635 179.204 165.791 180.922 166.084L183.532 166.48C184.403 166.609 185.249 166.841 186.11 167.016C189.562 167.7 192.882 168.843 196.13 170.135C199.334 171.532 202.39 173.243 205.22 175.284C208.012 177.376 210.537 179.817 212.721 182.548C217.103 188.013 219.99 194.643 221.524 201.562C222.297 205.025 222.745 208.569 222.926 212.129C223.014 213.91 223.038 215.695 222.974 217.479C222.912 219.258 222.799 221.052 222.552 222.8L223.496 222.959C223.814 221.15 223.988 219.349 224.114 217.535C224.241 215.723 224.279 213.905 224.251 212.087C224.191 208.452 223.857 204.812 223.185 201.22C222.513 197.629 221.5 194.085 220.083 190.688C218.661 187.295 216.832 184.053 214.605 181.094C212.378 178.135 209.767 175.456 206.857 173.143C203.909 170.878 200.709 168.963 197.352 167.382C193.958 165.91 190.471 164.604 186.874 163.777C185.977 163.566 185.088 163.299 184.181 163.135L181.464 162.641C179.638 162.278 177.855 162.073 176.077 161.805L170.74 161.011L165.368 160.297C161.783 159.81 158.205 159.38 154.624 158.934C147.47 158.057 140.31 157.232 133.214 156.283C126.124 155.313 119.094 154.174 112.287 152.404C105.477 150.649 98.9173 148.194 92.6781 145.023C91.1247 144.216 89.5474 143.465 88.0489 142.54L85.7751 141.212C85.0194 140.766 84.2506 140.347 83.521 139.848L79.0915 136.964L78.8146 136.784L78.7071 136.715C78.7017 136.71 78.6959 136.706 78.6988 136.708L78.6306 136.658L78.0858 136.26L76.9962 135.461L75.9087 134.663L74.979 133.869L74.0473 133.08C73.7353 132.823 73.4244 132.558 73.1247 132.252L71.3051 130.493C70.1668 129.247 68.9978 128.028 67.9789 126.679C65.8885 124.031 64.0065 121.202 62.4916 118.18C60.9572 115.172 59.696 112.026 58.7441 108.797C57.795 105.567 57.211 102.245 56.9555 98.9289C56.7083 95.6138 56.8236 92.2913 57.3796 89.0944C57.9314 85.9004 58.9549 82.8382 60.4608 80.1355C61.965 77.432 63.9668 75.1096 66.3738 73.3665C68.7775 71.6151 71.5833 70.4464 74.5913 69.8352L75.7289 69.6303C76.1067 69.5567 76.4837 69.4827 76.8805 69.4703L79.1023 69.2972L81.8035 69.2951C82.2818 69.2815 82.6269 69.3315 83.0271 69.3534L84.1932 69.4307C87.383 69.6898 90.6196 70.3208 93.635 71.349C96.667 72.3751 101.297 74.7881 104.089 76.3336C108.976 79.0379 115.935 86.0235 120.239 90.6854C125.625 96.5246 128.916 103.104 128.916 103.104L128.901 103.12ZM147.667 66.6586C147.647 66.6545 147.651 66.6545 147.667 66.6586V66.6586Z" fill="#F38FBB"/>
<path d="M81.9313 154.495C81.9313 154.495 81.2608 154.251 80.0468 153.733C78.8291 153.218 77.0694 152.407 74.8799 151.266C72.694 150.121 70.0717 148.649 67.2109 146.715C64.3496 144.786 61.2081 142.446 58.0431 139.559C54.8805 136.675 51.672 133.259 48.7533 129.233C45.83 125.217 43.2495 120.552 41.3489 115.388C39.4668 110.222 38.3144 104.553 38.1011 98.7579C37.8758 92.9658 38.4376 87.0629 39.6963 81.3439L39.7984 80.803L39.9368 80.274L40.215 79.2157L40.7731 77.0978L41.3344 74.9798L42.0144 72.9132C42.4719 71.5346 42.9291 70.1584 43.385 68.7865C43.9241 67.4521 44.4614 66.1214 44.9967 64.7961C45.2658 64.1324 45.5345 63.47 45.8028 62.8092C46.0578 62.1393 46.3992 61.5231 46.6927 60.8797C47.2966 59.6028 47.9216 58.3428 48.5412 57.0881L49.0054 56.1488L49.2171 55.717L49.4477 55.2707C49.7507 54.6735 50.0756 54.0912 50.3873 53.5044C51.0396 52.3184 51.5728 51.2171 52.1643 50.0906C54.5196 45.5882 56.6695 41.1957 58.5188 37.0037C59.3989 34.8949 60.2702 32.8473 60.9365 30.8347C61.6446 28.8338 62.2353 26.8766 62.6809 24.9971C63.1203 23.1148 63.4493 21.3035 63.6184 19.5778C63.792 17.8537 63.7883 16.223 63.6783 14.696C63.4485 11.6413 62.6296 9.02829 61.6636 6.94386C61.1469 5.92437 60.6732 4.98629 60.1718 4.21847C59.9362 3.8234 59.694 3.47213 59.4691 3.15021C59.2505 2.82292 59.0463 2.52579 58.852 2.26792C58.4791 1.73813 58.1625 1.3534 57.9571 1.08437C57.7504 0.814931 57.6442 0.675665 57.6442 0.675665L58.234 0C58.234 0 58.3861 0.0950477 58.6809 0.279771C58.9781 0.463254 59.4113 0.745092 59.9614 1.14388C60.5219 1.52986 61.185 2.0489 61.9298 2.71423C62.6892 3.36593 63.5093 4.18954 64.3608 5.19167C65.19 6.21034 66.0572 7.40711 66.8517 8.82415C67.6325 10.2449 68.3178 11.8847 68.8403 13.6984C69.3731 15.5101 69.7203 17.4987 69.8894 19.5914C70.0349 21.6833 70.0068 23.8781 69.7952 26.1307C69.3831 30.6413 68.2608 35.3528 66.657 40.111C65.0503 44.87 62.9682 49.6881 60.4372 54.4425C59.7862 55.619 59.1198 56.8691 58.4581 57.994C58.1237 58.5684 57.7996 59.1511 57.4515 59.723L57.194 60.1545L56.9332 60.6107L56.4525 61.4529C55.2099 63.7204 53.7425 65.9317 52.6293 68.3158C52.0324 69.4939 51.4327 70.6767 50.8312 71.8631C50.3166 73.0826 49.7999 74.305 49.2828 75.5303L48.5061 77.3755L47.8832 79.2669L47.2561 81.1625L46.9411 82.1121L46.7837 82.587L46.6634 83.0688C45.241 88.1923 44.4585 93.4551 44.3734 98.6471C44.3081 103.837 44.9632 108.957 46.3554 113.738C47.7521 118.518 49.8516 122.93 52.2805 126.87C54.7147 130.811 57.5016 134.267 60.3153 137.241C63.1331 140.216 65.9584 142.739 68.5857 144.828C71.2109 146.924 73.6447 148.575 75.6751 149.894C77.7134 151.201 79.3681 152.153 80.5127 152.763C81.6585 153.378 82.2781 153.669 82.2781 153.669L81.9309 154.491L81.9313 154.495Z" fill="#F38FBB"/>
<path d="M194.261 148.457C194.261 148.457 196.64 147.841 200.834 146.92C202.932 146.467 205.481 145.913 208.423 145.368C211.362 144.813 214.688 144.23 218.329 143.656C225.609 142.511 234.153 141.392 243.386 140.743C248.003 140.432 252.79 140.233 257.67 140.214C262.55 140.188 267.525 140.352 272.501 140.8C277.477 141.245 282.458 141.946 287.33 143.025C292.202 144.1 296.965 145.55 301.466 147.469C303.71 148.442 305.885 149.535 307.949 150.776C308.46 151.095 308.974 151.402 309.474 151.731C309.97 152.071 310.462 152.409 310.951 152.745C311.418 153.073 311.883 153.4 312.343 153.724C312.55 153.869 312.79 154.059 313.028 154.249L313.736 154.81C314.674 155.557 315.492 156.313 316.303 157.12C316.713 157.51 317.104 157.918 317.474 158.34C317.854 158.752 318.219 159.174 318.56 159.613C319.956 161.336 321.119 163.173 322.04 165.036C323.909 168.758 324.815 172.54 325.039 175.849C325.263 179.172 324.872 182.021 324.3 184.255C324.006 185.374 323.684 186.346 323.374 187.173C323.055 188 322.729 188.679 322.471 189.224C321.916 190.305 321.561 190.842 321.561 190.842L320.756 190.612C320.756 190.612 320.742 189.99 320.716 188.824C320.705 188.25 320.674 187.546 320.612 186.73C320.576 185.919 320.477 184.991 320.339 183.976C320.084 181.947 319.608 179.555 318.758 177.01C317.908 174.463 316.657 171.774 314.875 169.123C313.078 166.493 310.821 163.817 308.146 161.176L307.661 160.699C307.502 160.54 307.342 160.381 307.129 160.196C306.758 159.857 306.385 159.515 306.009 159.17C305.631 158.867 305.249 158.561 304.865 158.254C304.475 157.954 304.064 157.668 303.661 157.37C302.017 156.213 300.232 155.131 298.33 154.146C294.52 152.173 290.245 150.619 285.765 149.403C281.282 148.185 276.59 147.293 271.843 146.641C262.343 145.364 252.648 144.927 243.551 145.025C239.001 145.062 234.595 145.196 230.419 145.416C226.242 145.636 222.292 145.927 218.65 146.253C215.007 146.58 211.671 146.936 208.719 147.29C205.766 147.649 203.19 147.967 201.074 148.263C196.84 148.85 194.438 149.276 194.438 149.276L194.256 148.466L194.261 148.457Z" fill="#EE3E80"/>
<path d="M192.855 138.101C192.855 138.101 247.885 132.121 275.998 114.181C306.129 94.9535 286.964 57.8055 266.128 58.2684C239.211 58.8663 225.111 79.0065 220.072 82.7865C215.031 86.5661 208.94 95.0634 208.94 95.0634C208.94 95.0634 221.332 44.7708 198.228 41.8326C175.123 38.8944 170.249 67.9814 176.705 88.4679C183.588 110.292 192.859 138.099 192.859 138.099L192.855 138.101Z" fill="url(#paint0_linear)"/>
<path d="M146.845 156.342C146.845 156.342 163.27 129.403 163.892 101.925C164.513 74.4459 149.619 67.0983 141.919 67.8141C134.219 68.5302 132.536 82.2332 131.293 92.6562C130.05 103.079 130.694 109.998 130.694 109.998C130.694 109.998 120.4 87.0926 99.5902 76.2113C78.7807 65.3292 62.0666 72.552 58.3382 90.5557C54.6097 108.559 70.7248 135.629 100.488 146.179C133.391 157.837 146.85 156.341 146.85 156.341L146.845 156.342Z" fill="url(#paint1_linear)"/>
<defs>
<linearGradient id="paint0_linear" x1="262.386" y1="66.6131" x2="193.307" y2="95.33" gradientUnits="userSpaceOnUse">
<stop stop-color="white"/>
<stop offset="0.1801" stop-color="#FACBDD"/>
<stop offset="0.3796" stop-color="#F699BC"/>
<stop offset="0.568" stop-color="#F372A2"/>
<stop offset="0.7398" stop-color="#F0558F"/>
<stop offset="0.8894" stop-color="#EF4484"/>
<stop offset="1" stop-color="#EE3E80"/>
</linearGradient>
<linearGradient id="paint1_linear" x1="57.8078" y1="112.083" x2="163.912" y2="112.083" gradientUnits="userSpaceOnUse">
<stop stop-color="white"/>
<stop offset="1" stop-color="#F38FBB"/>
</linearGradient>
</defs>
</svg>
